<?xml version="1.0" standalone="no"?>
<!DOCTYPE svg PUBLIC "-//W3C//DTD SVG 20010904//EN"
 "http://www.w3.org/TR/2001/REC-SVG-20010904/DTD/svg10.dtd">
<svg version="1.0" xmlns="http://www.w3.org/2000/svg"
 width="369.000000pt" height="369.000000pt" viewBox="0 0 369.000000 369.000000"
 preserveAspectRatio="xMidYMid meet">
<metadata>
Created by potrace 1.11, written by Peter Selinger 2001-2013
</metadata>
<g transform="translate(0.000000,369.000000) scale(0.100000,-0.100000)"
fill="#000000" stroke="none">
<path d="M1665 3682 c-11 -1 -29 -7 -40 -12 -11 -5 -33 -11 -48 -15 -16 -3
-50 -26 -76 -50 -27 -25 -58 -45 -70 -45 -22 0 -111 -80 -111 -100 0 -5 9 -29
21 -53 29 -60 72 -87 137 -87 76 0 114 -20 161 -84 44 -59 101 -96 148 -96
l28 0 0 228 c-1 125 -4 237 -8 249 -14 38 -91 74 -142 65z m-17 -112 c13 -11
34 -48 47 -83 31 -86 52 -125 82 -153 18 -17 21 -24 11 -24 -36 0 -88 71 -118
160 -29 87 -45 103 -92 97 -43 -6 -49 -1 -15 13 35 14 60 11 85 -10z"/>
<path d="M1975 3680 c-46 -7 -91 -36 -102 -65 -12 -34 -10 -275 2 -285 26 -22
75 48 120 173 28 78 70 103 129 74 l31 -16 -45 6 c-55 6 -70 -7 -95 -87 -33
-106 -92 -181 -130 -166 -18 6 -17 11 -19 -91 l-2 -83 26 0 c45 0 113 42 152
95 48 64 87 85 158 85 86 0 140 47 156 134 5 30 -74 106 -110 106 -16 0 -33
10 -47 29 -23 32 -81 67 -121 75 -14 2 -35 8 -45 13 -10 5 -36 7 -58 3z"/>
<path d="M2361 3431 c-7 -11 -9 -21 -6 -21 4 0 -4 -18 -17 -41 -28 -50 -67
-72 -134 -75 -65 -2 -101 -22 -142 -76 -41 -55 -75 -76 -143 -86 l-54 -7 0
-89 c-1 -99 5 -109 63 -126 58 -16 71 -13 143 30 39 23 87 43 113 46 54 8 63
17 81 81 l14 48 -4 -45 c-2 -25 -4 -50 -4 -57 -2 -22 -44 -53 -74 -53 -16 0
-63 -18 -104 -40 -87 -45 -112 -48 -178 -20 -26 11 -48 20 -49 20 -6 0 1 -197
8 -208 4 -6 2 -12 -3 -12 -6 0 -11 -5 -11 -11 0 -5 5 -7 10 -4 6 3 10 -1 10
-10 0 -9 11 -27 25 -41 24 -23 31 -25 93 -21 44 3 79 0 100 -8 18 -8 32 -15
32 -17 0 -2 -46 -3 -102 -2 -106 0 -148 12 -148 40 0 8 -3 13 -8 11 -6 -4 -9
-367 -3 -439 0 -9 11 -29 24 -44 18 -21 33 -27 68 -29 24 -1 57 -7 72 -13 40
-17 75 -15 121 7 23 11 62 28 88 39 31 13 52 31 63 51 8 17 20 31 25 31 5 0
21 23 37 52 17 32 45 64 73 83 25 17 51 45 59 61 14 27 25 114 15 114 -2 0
-32 -20 -65 -44 -33 -25 -86 -55 -117 -67 -59 -23 -88 -42 -187 -118 -51 -40
-63 -45 -118 -48 l-62 -3 55 13 c54 12 103 38 118 61 21 33 103 88 175 117 86
34 216 114 218 133 1 6 2 34 3 61 2 28 8 60 14 71 16 30 22 74 11 74 -32 0
-91 -37 -134 -85 -31 -35 -59 -57 -74 -58 -14 -1 -27 -10 -32 -24 -5 -13 -15
-23 -23 -23 -8 0 -22 -10 -30 -22 -13 -18 -16 -19 -16 -6 0 9 11 25 25 36 29
23 32 40 8 58 -15 11 -12 11 21 4 39 -9 40 -8 95 50 56 60 91 80 137 80 44 0
56 80 20 135 -17 26 -21 47 -29 149 -2 27 -11 45 -29 61 -20 17 -25 30 -23 56
2 22 -6 46 -23 71 -14 21 -26 56 -27 79 -2 28 -11 50 -28 67 l-25 25 -11 -22z
m114 -378 c-54 -19 -70 -36 -109 -118 -41 -87 -85 -139 -140 -167 l-41 -21 50
45 c36 33 63 72 98 141 50 98 69 119 128 135 49 13 60 1 14 -15z"/>
<path d="M1272 3413 c-10 -16 -17 -41 -16 -57 2 -17 -7 -44 -23 -69 -16 -25
-26 -55 -26 -78 0 -22 -5 -40 -13 -43 -17 -7 -47 -64 -41 -80 3 -6 20 -13 38
-14 71 -5 100 -31 153 -132 31 -61 67 -112 100 -144 l51 -50 -44 25 c-55 31
-92 75 -139 169 -40 81 -83 120 -132 120 -21 0 -29 -6 -34 -25 -4 -14 -4 -30
-1 -35 3 -5 -6 -29 -19 -54 -18 -33 -23 -57 -20 -83 6 -46 10 -50 57 -56 47
-6 77 -26 119 -78 40 -49 68 -62 106 -48 22 8 25 8 15 -2 -19 -19 -16 -42 7
-62 11 -9 20 -21 20 -26 0 -15 -68 32 -73 49 -2 9 -14 16 -26 17 -14 1 -45 26
-77 61 -39 44 -64 62 -93 70 -22 5 -42 8 -45 5 -2 -3 2 -24 10 -46 15 -41 22
-85 23 -137 1 -21 16 -36 79 -77 42 -28 100 -58 128 -67 59 -19 119 -57 184
-116 49 -45 77 -60 130 -67 49 -7 51 -13 3 -13 -60 0 -101 18 -172 76 -35 29
-78 59 -95 67 -17 8 -56 27 -87 41 -31 14 -76 42 -100 61 -24 19 -47 35 -51
35 -12 0 -1 -86 16 -117 8 -17 35 -44 58 -60 25 -17 54 -48 69 -76 14 -26 32
-53 40 -60 9 -6 23 -24 32 -39 9 -15 36 -33 64 -44 26 -10 58 -24 71 -32 32
-20 92 -26 127 -11 17 7 50 13 74 15 32 1 51 9 70 28 l26 26 1 225 c0 124 -3
225 -8 225 -4 0 -8 -4 -8 -10 0 -24 -57 -39 -129 -34 -41 3 -85 1 -104 -5 -36
-13 -26 0 17 23 21 10 49 13 99 10 108 -7 126 19 133 191 1 44 0 88 -2 97 -5
16 -8 17 -34 3 -15 -8 -47 -17 -69 -21 -36 -6 -52 -1 -121 35 -43 22 -88 41
-99 41 -29 0 -69 20 -76 39 -4 9 -8 41 -10 71 l-4 55 15 -55 c19 -67 28 -77
82 -84 24 -3 73 -24 112 -47 62 -37 75 -41 112 -35 24 4 54 13 68 21 24 13 25
17 25 109 l1 96 -39 0 c-66 0 -127 37 -170 102 -24 38 -61 54 -137 62 -55 6
-70 12 -98 39 -18 17 -37 48 -43 69 -12 45 -31 48 -57 11z"/>
<path d="M1791 2115 c-19 -19 -37 -35 -41 -35 -4 0 -6 -106 -4 -237 4 -204 2
-240 -12 -261 -29 -45 -125 -139 -159 -158 -19 -10 -35 -24 -35 -31 0 -18 35
-16 96 5 l52 18 -14 -38 -13 -39 65 35 c74 40 109 42 141 9 48 -50 173 -85
173 -48 0 8 -3 15 -7 15 -12 0 -67 50 -61 55 3 3 25 -2 49 -11 60 -21 106 -26
115 -12 4 6 3 8 -3 5 -5 -4 -24 4 -41 17 -39 28 -161 157 -163 171 -1 6 -3 21
-5 35 -6 44 -5 281 1 377 l6 92 -30 16 c-17 8 -35 24 -41 35 -15 28 -30 25
-69 -15z"/>
<path d="M784 1172 c-38 -19 -37 -17 -24 -42 9 -18 14 -19 26 -9 13 10 17 10
23 0 5 -7 9 -117 9 -244 0 -128 1 -244 1 -258 2 -57 48 -79 106 -51 39 19 38
17 26 40 -7 14 -17 18 -35 15 l-25 -5 0 238 c0 132 0 251 0 265 -2 56 -51 80
-107 51z"/>
<path d="M995 1181 c-46 -14 -58 -27 -46 -50 10 -17 16 -19 31 -11 10 5 21 7
23 3 3 -5 5 -123 5 -264 -1 -259 4 -297 37 -300 8 -1 21 -2 28 -3 10 -2 63 19
75 29 2 2 -1 12 -7 23 -7 13 -18 18 -34 15 l-24 -5 0 244 c-1 133 -2 252 -2
264 -2 44 -41 68 -86 55z"/>
<path d="M23 1125 c-10 -27 2 -50 24 -49 24 1 22 5 81 -166 22 -63 45 -128 52
-145 6 -16 13 -37 15 -45 4 -15 37 -109 50 -142 5 -13 18 -18 46 -18 21 0 39
1 39 3 0 2 12 37 26 78 14 41 52 148 84 239 32 91 61 173 65 182 4 10 16 17
28 15 18 -2 22 3 22 28 0 29 -1 30 -49 30 -58 0 -48 19 -148 -272 -34 -100
-63 -181 -65 -180 -1 2 -36 101 -77 220 -42 120 -78 222 -81 227 -9 15 -106
10 -112 -5z"/>
<path d="M643 1129 c-47 -17 -33 -103 15 -94 9 2 20 4 24 4 14 2 29 42 23 61
-9 27 -35 39 -62 29z"/>
<path d="M2026 1131 c-5 -8 -175 -467 -183 -493 -3 -11 -15 -18 -29 -18 -20 0
-24 -5 -24 -31 0 -30 0 -30 52 -27 l52 3 31 87 c17 48 34 91 39 95 4 4 48 8
97 8 l89 1 32 -98 32 -98 59 0 58 0 -3 32 c-2 27 -7 33 -26 33 -25 0 -15 -24
-171 430 l-27 80 -37 2 c-20 0 -39 -2 -41 -6z m94 -296 c0 -6 -29 -10 -65 -11
-36 0 -65 3 -65 7 0 11 50 150 62 173 9 16 15 4 39 -70 16 -49 29 -93 29 -99z"/>
<path d="M2873 1129 c-12 -4 -24 -17 -28 -29 -9 -27 18 -69 42 -65 10 2 21 4
25 4 14 2 29 42 23 61 -9 27 -35 39 -62 29z"/>
<path d="M3069 1048 c-1 -2 -2 -21 -3 -43 -1 -50 -12 -68 -37 -60 -14 5 -21 0
-28 -17 -11 -31 -4 -47 20 -43 42 8 45 0 44 -128 -1 -67 3 -134 7 -148 15 -45
88 -67 151 -46 22 7 27 15 27 43 0 32 -2 34 -20 24 -12 -6 -35 -10 -53 -8
l-32 3 -3 131 -3 130 38 -1 c52 -2 61 2 61 30 0 28 -9 32 -60 30 l-38 -1 0 53
0 53 -35 0 c-19 0 -35 -1 -36 -2z"/>
<path d="M603 935 c-36 -15 -42 -35 -18 -55 8 -7 15 -8 15 -3 0 5 7 10 15 10
16 0 17 -2 17 -177 0 -115 10 -144 52 -152 31 -6 86 17 86 36 0 19 -20 31 -42
28 -19 -3 -19 -1 -19 210 0 71 -2 79 -26 98 -30 23 -37 24 -80 5z"/>
<path d="M1243 934 c-28 -12 -31 -17 -24 -36 6 -15 15 -22 27 -20 11 2 45 4
76 5 65 2 82 -9 93 -61 l7 -34 -31 16 c-39 21 -114 20 -157 0 -84 -40 -93
-179 -16 -230 40 -26 121 -29 166 -5 34 18 40 18 53 6 19 -19 56 -19 93 0 32
17 35 22 21 44 -5 8 -16 11 -29 7 -27 -9 -30 5 -30 122 -1 124 -12 155 -66
181 -50 25 -134 27 -183 5z m153 -196 c27 -27 27 -64 1 -94 -21 -24 -33 -29
-71 -29 -68 0 -100 46 -75 108 19 45 107 54 145 15z"/>
<path d="M2540 943 c-8 -3 -26 -14 -41 -24 -24 -17 -25 -17 -37 2 -14 22 -57
25 -97 7 -39 -18 -29 -56 15 -54 l25 1 2 -145 c1 -80 2 -151 2 -157 1 -8 15
-13 36 -13 21 0 35 5 36 13 0 6 1 62 3 122 2 125 17 166 64 183 35 12 77 5 94
-15 8 -10 13 -57 14 -138 1 -67 7 -132 13 -143 13 -24 61 -32 99 -16 38 16 43
25 27 47 -11 15 -17 16 -34 7 -19 -10 -21 -8 -22 17 -5 219 -6 230 -24 257
-10 15 -31 34 -46 42 -28 14 -100 18 -129 7z"/>
<path d="M2843 943 c-28 -6 -47 -29 -39 -49 4 -10 13 -14 26 -11 11 3 23 0 27
-6 3 -6 6 -69 6 -141 -1 -72 3 -139 8 -148 16 -29 43 -38 82 -27 42 11 51 22
42 49 -5 15 -12 19 -31 14 -28 -7 -26 -17 -26 165 0 106 -2 116 -24 137 -23
24 -29 25 -71 17z"/>
<path d="M3343 935 c-28 -12 -32 -17 -24 -37 6 -15 15 -22 27 -20 11 2 45 4
76 5 65 2 82 -9 93 -61 l7 -34 -31 16 c-40 21 -125 21 -163 -1 -56 -33 -80
-128 -47 -190 31 -57 135 -80 203 -44 34 18 40 18 53 6 8 -8 26 -15 39 -15 27
0 84 26 84 38 -1 19 -19 32 -41 30 l-24 -3 -3 115 c-3 124 -12 152 -55 184
-35 26 -145 32 -194 11z m153 -197 c45 -46 10 -115 -63 -125 -35 -5 -45 -2
-67 20 -28 28 -32 50 -16 91 16 43 109 52 146 14z"/>
<path d="M2228 413 c-10 -3 -18 -11 -18 -20 0 -9 6 -13 15 -9 12 4 15 -5 15
-50 0 -51 -1 -54 -19 -44 -79 42 -158 -50 -121 -140 21 -50 88 -71 126 -40 13
11 17 11 24 1 10 -17 63 -6 57 12 -2 7 -10 11 -16 10 -8 -2 -11 37 -11 132 0
118 -2 135 -17 143 -10 5 -26 7 -35 5z m-24 -153 c18 -6 27 -19 32 -45 12 -66
-48 -113 -88 -67 -22 23 -17 91 7 109 22 16 18 15 49 3z"/>
<path d="M320 376 c0 -8 5 -16 11 -18 16 -5 16 -221 0 -226 -6 -2 -11 -10 -11
-18 0 -11 20 -14 101 -14 89 0 100 2 97 17 -2 13 -15 17 -68 17 l-65 1 -1 113
c-1 89 1 112 12 112 8 0 14 7 14 15 0 11 -12 15 -45 15 -32 0 -45 -4 -45 -14z"/>
<path d="M1817 350 c24 -33 63 -60 63 -43 0 10 -41 73 -48 74 -4 0 -15 2 -25
4 -14 3 -12 -4 10 -35z"/>
<path d="M2343 379 c-15 -15 -5 -39 16 -39 25 0 32 10 20 31 -11 22 -20 24
-36 8z"/>
<path d="M573 293 c-7 -3 -13 -11 -13 -20 0 -11 8 -13 35 -10 23 3 41 0 50
-10 25 -24 17 -31 -27 -26 -51 5 -75 -10 -84 -52 -7 -38 20 -75 56 -75 24 0
102 5 128 8 17 3 15 22 -3 22 -15 0 -16 8 -17 92 0 23 -7 43 -19 54 -18 16
-80 26 -106 17z m77 -108 c15 -18 4 -53 -18 -57 -42 -9 -69 16 -57 53 8 23 57
26 75 4z"/>
<path d="M915 291 c-37 -16 -57 -47 -57 -95 -1 -50 13 -73 54 -91 40 -16 98
-7 98 15 0 15 -7 17 -44 13 -41 -5 -45 -3 -59 23 -33 66 9 122 75 103 24 -6
28 -5 28 12 0 10 -6 19 -12 20 -7 0 -24 2 -38 4 -14 2 -34 0 -45 -4z"/>
<path d="M1200 291 c-11 -4 -15 -23 -17 -62 -2 -70 -16 -99 -48 -99 -32 0 -37
11 -39 83 -3 69 -18 89 -58 69 -23 -11 -23 -11 -2 -17 17 -5 21 -15 22 -61 0
-29 3 -63 7 -74 9 -28 62 -41 98 -23 16 8 27 9 27 3 0 -15 46 -12 59 4 13 16
-1 32 -19 21 -6 -4 -9 23 -8 74 2 44 0 82 -2 84 -3 3 -12 2 -20 -2z"/>
<path d="M1358 286 c-16 -9 -28 -9 -40 -2 -11 7 -24 6 -40 -2 -23 -11 -23 -11
-2 -17 19 -6 22 -14 22 -73 0 -91 0 -92 17 -92 17 0 16 -3 20 66 3 69 18 94
55 94 19 0 30 5 30 14 0 19 -34 26 -62 12z"/>
<path d="M1473 293 c-13 -2 -23 -11 -23 -19 0 -11 9 -14 33 -11 38 5 67 -8 67
-29 0 -11 -5 -14 -17 -9 -27 10 -26 10 -61 2 -31 -6 -52 -35 -52 -73 0 -29 44
-62 76 -57 16 3 48 5 71 6 23 1 44 5 48 9 9 9 -4 30 -15 23 -4 -2 -10 24 -12
60 -2 41 -10 71 -19 81 -17 16 -60 24 -96 17z m67 -108 c15 -18 4 -55 -18 -56
-50 -4 -67 10 -58 45 5 20 13 26 35 26 16 0 34 -7 41 -15z"/>
<path d="M1810 287 c-42 -21 -62 -88 -42 -140 12 -29 61 -55 96 -50 46 6 56
11 56 27 0 11 -9 13 -40 9 -30 -4 -45 -1 -60 12 -32 29 -24 35 44 35 74 0 84
11 61 66 -20 48 -67 65 -115 41z m68 -30 c6 -5 12 -16 12 -26 0 -15 -8 -19
-40 -19 -48 -1 -57 11 -31 37 20 20 36 22 59 8z"/>
<path d="M2323 284 c-18 -13 -16 -15 10 -18 13 -1 14 -13 16 -108 1 -53 3 -58
24 -58 12 0 28 4 36 9 11 7 10 11 -5 19 -15 9 -19 24 -20 79 -1 37 -2 71 -3
74 -2 14 -41 16 -58 3z"/>
<path d="M2600 291 c-38 -10 -68 -62 -63 -108 7 -64 71 -104 131 -82 40 15 26
34 -22 31 -40 -4 -46 -1 -59 25 -17 32 -12 76 10 94 7 7 32 12 53 11 28 -1 40
2 40 12 0 22 -43 30 -90 17z"/>
<path d="M2758 293 c-10 -2 -18 -11 -18 -20 0 -12 8 -14 35 -10 24 4 40 1 50
-9 24 -25 18 -32 -27 -27 -54 5 -81 -15 -84 -61 -4 -41 23 -69 63 -67 15 1 51
2 78 4 37 1 50 6 50 17 0 8 -7 14 -15 13 -12 -2 -15 10 -15 62 0 46 -5 70 -17
81 -16 16 -70 26 -100 17z m72 -108 c16 -19 6 -43 -22 -54 -39 -14 -65 10 -53
50 8 23 57 26 75 4z"/>
<path d="M2947 280 c-14 -11 -24 -28 -22 -38 2 -9 4 -22 4 -29 1 -7 19 -18 41
-24 53 -16 71 -37 47 -54 -14 -10 -27 -11 -54 -3 -41 11 -53 4 -31 -18 35 -35
120 -18 131 28 9 33 -9 55 -58 73 -66 26 -57 60 13 49 39 -6 51 13 17 26 -39
15 -59 12 -88 -10z"/>
<path d="M3133 293 c-13 -2 -23 -11 -23 -20 0 -11 7 -14 27 -10 34 6 73 -8 73
-27 0 -10 -11 -12 -42 -9 -57 6 -82 -13 -82 -61 0 -44 22 -69 60 -67 35 2 104
7 122 9 17 2 10 27 -8 27 -9 0 -13 18 -14 62 -1 41 -6 67 -16 77 -17 17 -63
26 -97 19z m71 -116 c9 -15 7 -22 -13 -38 -27 -22 -30 -23 -55 -4 -13 10 -17
21 -12 40 6 22 11 26 38 23 17 -2 36 -11 42 -21z"/>
<path d="M3338 142 c-25 -5 -23 -42 1 -42 11 0 23 4 26 10 10 15 -8 36 -27 32z"/>
</g>
</svg>
